<svg width="75" height="75" viewBox="0 0 75 75" fill="none" xmlns="http://www.w3.org/2000/svg">
<path d="M37.5 75C40.3416 75 43.0668 74.0123 45.0761 72.2543C47.0855 70.4962 48.2143 68.1118 48.2143 65.6255H26.7857C26.7857 68.1118 27.9145 70.4962 29.9239 72.2543C31.9332 74.0123 34.6584 75 37.5 75ZM42.8304 5.15538C42.9051 4.50364 42.8229 3.84542 42.5891 3.22317C42.3553 2.60093 41.975 2.02847 41.4727 1.54273C40.9705 1.05698 40.3575 0.668727 39.6732 0.403007C38.989 0.137287 38.2486 0 37.5 0C36.7514 0 36.011 0.137287 35.3268 0.403007C34.6425 0.668727 34.0295 1.05698 33.5273 1.54273C33.025 2.02847 32.6447 2.60093 32.4109 3.22317C32.1771 3.84542 32.0949 4.50364 32.1696 5.15538C26.1146 6.23298 20.6712 9.10842 16.7612 13.2948C12.8513 17.4812 10.7151 22.7212 10.7143 28.1276C10.7143 33.2742 8.03571 56.251 0 60.9383H75C66.9643 56.251 64.2857 33.2742 64.2857 28.1276C64.2857 16.7844 55.0714 7.3162 42.8304 5.15538Z" fill="#D4920A"/>
</svg>
