<svg width="70" height="57" viewBox="0 0 70 57" fill="none" xmlns="http://www.w3.org/2000/svg">
<path d="M2.8125 0.000118607C2.06658 0.000118607 1.35121 0.296435 0.823762 0.823881C0.296316 1.35133 0 2.0667 0 2.81262C0 3.55854 0.296316 4.27391 0.823762 4.80136C1.35121 5.3288 2.06658 5.62512 2.8125 5.62512H9.05625L16.4362 35.1564C17.0634 37.6595 19.305 39.3751 21.8841 39.3751H56.9559C59.4956 39.3751 61.6528 37.6876 62.3194 35.2407L69.6094 8.43762H63.72L56.9531 33.7501H21.8812L14.5041 4.21887C14.1993 3.00732 13.4968 1.93309 12.5091 1.16819C11.5214 0.403289 10.3055 -0.00802388 9.05625 0.000118607H2.8125ZM53.4375 39.3751C48.8109 39.3751 45 43.1861 45 47.8126C45 52.4392 48.8109 56.2501 53.4375 56.2501C58.0641 56.2501 61.875 52.4392 61.875 47.8126C61.875 43.1861 58.0641 39.3751 53.4375 39.3751ZM28.125 39.3751C23.4984 39.3751 19.6875 43.1861 19.6875 47.8126C19.6875 52.4392 23.4984 56.2501 28.125 56.2501C32.7516 56.2501 36.5625 52.4392 36.5625 47.8126C36.5625 43.1861 32.7516 39.3751 28.125 39.3751ZM36.5625 0.000118607V14.0626H28.125L39.375 25.3126L50.625 14.0626H42.1875V0.000118607H36.5625ZM28.125 45.0001C29.7113 45.0001 30.9375 46.2264 30.9375 47.8126C30.9375 49.3989 29.7113 50.6251 28.125 50.6251C26.5387 50.6251 25.3125 49.3989 25.3125 47.8126C25.3125 46.2264 26.5387 45.0001 28.125 45.0001ZM53.4375 45.0001C55.0238 45.0001 56.25 46.2264 56.25 47.8126C56.25 49.3989 55.0238 50.6251 53.4375 50.6251C51.8512 50.6251 50.625 49.3989 50.625 47.8126C50.625 46.2264 51.8512 45.0001 53.4375 45.0001Z" fill="#D4920A"/>
</svg>
