<svg width="38" height="42" viewBox="0 0 38 42" fill="none" xmlns="http://www.w3.org/2000/svg">
<path d="M9 19H13.1667V23.1667H9V19ZM9 27.3333H13.1667V31.5H9V27.3333ZM17.3333 19H21.5V23.1667H17.3333V19ZM17.3333 27.3333H21.5V31.5H17.3333V27.3333ZM25.6667 19H29.8333V23.1667H25.6667V19ZM25.6667 27.3333H29.8333V31.5H25.6667V27.3333Z" fill="black"/>
<path d="M4.16667 41.6667H33.3333C35.6312 41.6667 37.5 39.7979 37.5 37.5V8.33333C37.5 6.03542 35.6312 4.16667 33.3333 4.16667H29.1667V0H25V4.16667H12.5V0H8.33333V4.16667H4.16667C1.86875 4.16667 0 6.03542 0 8.33333V37.5C0 39.7979 1.86875 41.6667 4.16667 41.6667ZM33.3333 12.5L33.3354 37.5H4.16667V12.5H33.3333Z" fill="black"/>
</svg>
