<svg width="75" height="68" viewBox="0 0 75 68" fill="none" xmlns="http://www.w3.org/2000/svg">
<path d="M0 26.25V22.5C0 15.3125 3.39125 9.765 10.1737 5.8575C16.9537 1.9525 26.0625 0 37.5 0C48.9375 0 58.0475 1.9525 64.83 5.8575C71.61 9.765 75 15.3125 75 22.5V26.25H0ZM0 43.125V35.625C2.25 35.625 4.03125 35 5.34375 33.75C6.65625 32.5 9.0625 31.875 12.5625 31.875C16.0625 31.875 18.4375 32.5 19.6875 33.75C20.9375 35 22.6875 35.625 24.9375 35.625C27.1875 35.625 28.9687 35 30.2812 33.75C31.5937 32.5 34 31.875 37.5 31.875C41 31.875 43.4063 32.5 44.7188 33.75C46.0313 35 47.8125 35.625 50.0625 35.625C52.3125 35.625 54.0625 35 55.3125 33.75C56.5625 32.5 58.9375 31.875 62.4375 31.875C65.9375 31.875 68.4063 32.5 69.8438 33.75C71.2812 35 73 35.625 75 35.625V43.125C71.5 43.125 69.1562 42.5 67.9688 41.25C66.7813 40 65.0625 39.375 62.8125 39.375C60.5625 39.375 58.75 40 57.375 41.25C56 42.5 53.5625 43.125 50.0625 43.125C46.5625 43.125 44.1563 42.5 42.8438 41.25C41.5313 40 39.75 39.375 37.5 39.375C35.25 39.375 33.4687 40 32.1562 41.25C30.8437 42.5 28.4375 43.125 24.9375 43.125C21.4375 43.125 19.0625 42.5 17.8125 41.25C16.5625 40 14.8125 39.375 12.5625 39.375C10.3125 39.375 8.53125 40 7.21875 41.25C5.90625 42.5 3.5 43.125 0 43.125ZM0 67.5V48.75H75V67.5H0Z" fill="#D4920A"/>
</svg>
