<svg width="102" height="48" viewBox="0 0 102 48" fill="none" xmlns="http://www.w3.org/2000/svg">
<path d="M1.42045 14.9801V9.90909H25.3125V14.9801H16.4062V39H10.3267V14.9801H1.42045ZM35.8274 39.4261C33.621 39.4261 31.7128 38.9574 30.103 38.0199C28.5026 37.0729 27.2668 35.7566 26.3956 34.071C25.5244 32.3759 25.0888 30.411 25.0888 28.1761C25.0888 25.9223 25.5244 23.9527 26.3956 22.267C27.2668 20.572 28.5026 19.2557 30.103 18.3182C31.7128 17.3712 33.621 16.8977 35.8274 16.8977C38.0339 16.8977 39.9373 17.3712 41.5376 18.3182C43.1475 19.2557 44.388 20.572 45.2592 22.267C46.1304 23.9527 46.5661 25.9223 46.5661 28.1761C46.5661 30.411 46.1304 32.3759 45.2592 34.071C44.388 35.7566 43.1475 37.0729 41.5376 38.0199C39.9373 38.9574 38.0339 39.4261 35.8274 39.4261ZM35.8558 34.7386C36.8596 34.7386 37.6977 34.4545 38.37 33.8864C39.0424 33.3087 39.549 32.5227 39.8899 31.5284C40.2403 30.5341 40.4155 29.4025 40.4155 28.1335C40.4155 26.8646 40.2403 25.733 39.8899 24.7386C39.549 23.7443 39.0424 22.9583 38.37 22.3807C37.6977 21.803 36.8596 21.5142 35.8558 21.5142C34.8426 21.5142 33.9903 21.803 33.299 22.3807C32.6172 22.9583 32.1011 23.7443 31.7507 24.7386C31.4098 25.733 31.2393 26.8646 31.2393 28.1335C31.2393 29.4025 31.4098 30.5341 31.7507 31.5284C32.1011 32.5227 32.6172 33.3087 33.299 33.8864C33.9903 34.4545 34.8426 34.7386 35.8558 34.7386ZM60.9268 39H50.6143V9.90909H61.0121C63.9382 9.90909 66.4571 10.4915 68.5689 11.6562C70.6806 12.8116 72.3047 14.4735 73.4411 16.642C74.5869 18.8106 75.1598 21.4053 75.1598 24.4261C75.1598 27.4564 74.5869 30.0606 73.4411 32.2386C72.3047 34.4167 70.6712 36.0881 68.5405 37.2528C66.4193 38.4176 63.8814 39 60.9268 39ZM56.7649 33.7301H60.6712C62.4893 33.7301 64.0187 33.4081 65.2592 32.7642C66.5092 32.1108 67.4467 31.1023 68.0717 29.7386C68.7062 28.3655 69.0234 26.5947 69.0234 24.4261C69.0234 22.2765 68.7062 20.5199 68.0717 19.1562C67.4467 17.7926 66.514 16.7888 65.2734 16.1449C64.0329 15.5009 62.5036 15.179 60.6854 15.179H56.7649V33.7301Z" fill="#D4920A"/>
<path fill-rule="evenodd" clip-rule="evenodd" d="M90 16C83.925 16 79 20.925 79 27C79 33.075 83.925 38 90 38C96.075 38 101 33.075 101 27C101 20.925 96.075 16 90 16ZM94.768 25.14C94.8558 25.0396 94.9226 24.9227 94.9646 24.7962C95.0065 24.6696 95.0227 24.5359 95.0123 24.403C95.0018 24.2701 94.9648 24.1406 94.9036 24.0221C94.8423 23.9037 94.758 23.7987 94.6555 23.7133C94.5531 23.628 94.4346 23.564 94.3071 23.5251C94.1796 23.4862 94.0455 23.4732 93.9129 23.4868C93.7802 23.5005 93.6517 23.5405 93.5347 23.6046C93.4178 23.6687 93.3149 23.7555 93.232 23.86L88.932 29.019L86.707 26.793C86.5184 26.6108 86.2658 26.51 86.0036 26.5123C85.7414 26.5146 85.4906 26.6198 85.3052 26.8052C85.1198 26.9906 85.0146 27.2414 85.0123 27.5036C85.01 27.7658 85.1108 28.0184 85.293 28.207L88.293 31.207C88.3913 31.3052 88.5089 31.3818 88.6384 31.4321C88.7679 31.4823 88.9065 31.505 89.0453 31.4986C89.184 31.4923 89.32 31.4572 89.4444 31.3954C89.5688 31.3337 89.6791 31.2467 89.768 31.14L94.768 25.14Z" fill="#D4920A"/>
</svg>
