<svg width="75" height="72" viewBox="0 0 75 72" fill="none" xmlns="http://www.w3.org/2000/svg">
<path d="M47.8275 26.25C51.45 26.25 54.39 29.19 54.39 32.8125V45H54.375V48.75H20.625V37.5H20.6325V32.8125C20.6325 29.19 23.5687 26.25 27.195 26.25H47.8275V26.25ZM75 32.8125C75 31.072 74.3086 29.4028 73.0779 28.1721C71.8472 26.9414 70.178 26.25 68.4375 26.25H55.7812C57.255 28.0312 58.14 30.3187 58.14 32.8125V37.5H58.125V48.75H72.1875C72.9334 48.75 73.6488 48.4537 74.1762 47.9262C74.7037 47.3988 75 46.6834 75 45.9375V32.8125ZM16.875 45H16.8825V32.8125L16.9163 31.9875C17.0781 29.8803 17.8906 27.8755 19.2413 26.25H6.5625L6.0225 26.2725C4.38112 26.408 2.85071 27.1558 1.73505 28.3673C0.619391 29.5788 6.15172e-05 31.1655 0 32.8125V45.9375C0 47.49 1.26 48.75 2.8125 48.75H16.875V45ZM37.5 0C40.4837 0 43.3452 1.18526 45.455 3.29505C47.5647 5.40483 48.75 8.26631 48.75 11.25C48.75 14.2337 47.5647 17.0952 45.455 19.205C43.3452 21.3147 40.4837 22.5 37.5 22.5C34.5163 22.5 31.6548 21.3147 29.545 19.205C27.4353 17.0952 26.25 14.2337 26.25 11.25C26.25 8.26631 27.4353 5.40483 29.545 3.29505C31.6548 1.18526 34.5163 0 37.5 0V0ZM61.875 3.75C64.3614 3.75 66.746 4.73772 68.5041 6.49587C70.2623 8.25403 71.25 10.6386 71.25 13.125C71.25 15.6114 70.2623 17.996 68.5041 19.7541C66.746 21.5123 64.3614 22.5 61.875 22.5C59.3886 22.5 57.004 21.5123 55.2459 19.7541C53.4877 17.996 52.5 15.6114 52.5 13.125C52.5 10.6386 53.4877 8.25403 55.2459 6.49587C57.004 4.73772 59.3886 3.75 61.875 3.75ZM13.125 3.75C15.6114 3.75 17.996 4.73772 19.7541 6.49587C21.5123 8.25403 22.5 10.6386 22.5 13.125C22.5 15.6114 21.5123 17.996 19.7541 19.7541C17.996 21.5123 15.6114 22.5 13.125 22.5C10.6386 22.5 8.25403 21.5123 6.49587 19.7541C4.73772 17.996 3.75 15.6114 3.75 13.125C3.75 10.6386 4.73772 8.25403 6.49587 6.49587C8.25403 4.73772 10.6386 3.75 13.125 3.75V3.75ZM0 55.3125C0 54.5666 0.296316 53.8512 0.823762 53.3238C1.35121 52.7963 2.06658 52.5 2.8125 52.5H72.1875C72.9334 52.5 73.6488 52.7963 74.1762 53.3238C74.7037 53.8512 75 54.5666 75 55.3125V57.1875C75 60.9171 73.5184 64.494 70.8812 67.1312C68.244 69.7684 64.6671 71.25 60.9375 71.25H14.0625C10.3329 71.25 6.75604 69.7684 4.11881 67.1312C1.48158 64.494 0 60.9171 0 57.1875V55.3125Z" fill="#D4920A"/>
</svg>
