<svg width="74" height="75" viewBox="0 0 74 75" fill="none" xmlns="http://www.w3.org/2000/svg">
<path d="M72.5 10.431L63.25 1.18095C62.4549 0.422894 61.3985 0 60.3 0C59.2015 0 58.1451 0.422894 57.35 1.18095L49.125 9.43095H5C3.67392 9.43095 2.40215 9.95774 1.46447 10.8954C0.526784 11.8331 0 13.1049 0 14.431V69.431C0 70.757 0.526784 72.0288 1.46447 72.9665C2.40215 73.9042 3.67392 74.431 5 74.431H60C61.3261 74.431 62.5979 73.9042 63.5355 72.9665C64.4732 72.0288 65 70.757 65 69.431V23.831L72.5 16.331C73.2816 15.5482 73.7207 14.4872 73.7207 13.381C73.7207 12.2747 73.2816 11.2137 72.5 10.431V10.431ZM37.075 44.7559L26.6 47.081L29.1 36.706L52.975 12.781L61.05 20.856L37.075 44.7559ZM63.75 18.006L55.675 9.93095L60.3 5.30595L68.375 13.381L63.75 18.006Z" fill="#D4920A"/>
</svg>
