<svg width="68" height="79" viewBox="0 0 68 79" fill="none" xmlns="http://www.w3.org/2000/svg">
<path d="M26.25 71.25H41.25C41.25 73.2391 40.4598 75.1468 39.0533 76.5533C37.6468 77.9598 35.7391 78.75 33.75 78.75C31.7609 78.75 29.8532 77.9598 28.4467 76.5533C27.0402 75.1468 26.25 73.2391 26.25 71.25ZM67.5 63.75V67.5H0V63.75L7.5 56.25V33.75C7.5 22.125 15.1125 11.8875 26.25 8.5875V7.5C26.25 5.51088 27.0402 3.60322 28.4467 2.1967C29.8532 0.790176 31.7609 0 33.75 0C35.7391 0 37.6468 0.790176 39.0533 2.1967C40.4598 3.60322 41.25 5.51088 41.25 7.5V8.5875C52.3875 11.8875 60 22.125 60 33.75V56.25L67.5 63.75ZM45 26.25H22.5V33.75H34.65L22.5 43.875V52.5H45V45H32.85L45 34.875V26.25Z" fill="#D4920A"/>
</svg>
