<svg width="42" height="42" viewBox="0 0 42 42" fill="none" xmlns="http://www.w3.org/2000/svg">
<path d="M20.8125 0C9.3125 0 0 9.33333 0 20.8333C0 32.3333 9.3125 41.6667 20.8125 41.6667C32.3333 41.6667 41.6667 32.3333 41.6667 20.8333C41.6667 9.33333 32.3333 0 20.8125 0ZM20.8333 37.5C11.625 37.5 4.16667 30.0417 4.16667 20.8333C4.16667 11.625 11.625 4.16667 20.8333 4.16667C30.0417 4.16667 37.5 11.625 37.5 20.8333C37.5 30.0417 30.0417 37.5 20.8333 37.5ZM20.375 10.4167H20.25C19.4167 10.4167 18.75 11.0833 18.75 11.9167V21.75C18.75 22.4792 19.125 23.1667 19.7708 23.5417L28.4167 28.7292C29.125 29.1458 30.0417 28.9375 30.4583 28.2292C30.563 28.0605 30.6325 27.8725 30.663 27.6763C30.6934 27.4802 30.684 27.2799 30.6354 27.0874C30.5868 26.895 30.5 26.7143 30.3801 26.5561C30.2602 26.3979 30.1097 26.2655 29.9375 26.1667L21.875 21.375V11.9167C21.875 11.0833 21.2083 10.4167 20.375 10.4167Z" fill="black"/>
</svg>
