<svg width="90" height="90" viewBox="0 0 90 90" fill="none" xmlns="http://www.w3.org/2000/svg">
<path d="M45 16.3636C40.005 16.3636 36 20.0045 36 24.5455C36 29.0864 40.005 32.7273 45 32.7273C49.995 32.7273 54 29.0864 54 24.5455C54 20.0045 49.995 16.3636 45 16.3636ZM90 0V20.4545H81V12.2727H9V20.4545H0V0H9V8.18182H81V0H90ZM58.5 41.9727V90H49.5V69.5455H40.5V90H31.5V41.9727C22.185 37.5136 15.75 28.6364 15.75 18.4091V16.3636H24.75V18.4091C24.75 28.6364 33.75 36.8182 45 36.8182C56.25 36.8182 65.25 28.6364 65.25 18.4091V16.3636H74.25V18.4091C74.25 28.6364 67.815 37.5136 58.5 41.9727Z" fill="#D4920A"/>
</svg>
