<svg width="39" height="43" viewBox="0 0 39 43" fill="none" xmlns="http://www.w3.org/2000/svg">
<path d="M19.2708 1.45316e-08C21.0003 -0.000113222 22.6642 0.661571 23.9213 1.84932C25.1784 3.03706 25.9333 4.66082 26.0313 6.3875L26.0417 6.77083H36.9792C37.3751 6.77096 37.7561 6.92134 38.0454 7.19161C38.3347 7.46188 38.5106 7.83187 38.5376 8.22683C38.5645 8.6218 38.4406 9.01228 38.1908 9.31937C37.9409 9.62647 37.5839 9.82729 37.1917 9.88125L36.9792 9.89583H35.3208L32.6542 37.0208C32.5206 38.3731 31.9106 39.6339 30.9333 40.5781C29.956 41.5222 28.6749 42.0882 27.3188 42.175L26.9521 42.1875H11.5896C10.2301 42.1875 8.91498 41.704 7.87918 40.8235C6.84338 39.9431 6.15441 38.723 5.93542 37.3813L5.8875 37.0188L3.21875 9.89583H1.5625C1.18492 9.89582 0.820121 9.75908 0.535561 9.5109C0.251002 9.26273 0.0659339 8.9199 0.0145833 8.54583L0 8.33333C1.59227e-05 7.95576 0.136755 7.59096 0.384931 7.3064C0.633107 7.02184 0.97593 6.83677 1.35 6.78542L1.5625 6.77083H12.5C12.5 4.9751 13.2134 3.25291 14.4831 1.98313C15.7529 0.713353 17.4751 1.45316e-08 19.2708 1.45316e-08V1.45316e-08ZM32.1813 9.89583H6.35833L8.99792 36.7125C9.05637 37.3109 9.32005 37.8706 9.74422 38.2966C10.1684 38.7227 10.7269 38.9889 11.325 39.05L11.5896 39.0625H26.9521C28.2021 39.0625 29.2625 38.1771 29.5042 36.975L29.5458 36.7125L32.1792 9.89583H32.1813ZM22.9167 15.625C23.2942 15.625 23.659 15.7618 23.9436 16.0099C24.2282 16.2581 24.4132 16.6009 24.4646 16.975L24.4792 17.1875V31.7708C24.479 32.1667 24.3287 32.5478 24.0584 32.8371C23.7881 33.1263 23.4181 33.3022 23.0232 33.3292C22.6282 33.3562 22.2377 33.2323 21.9306 32.9824C21.6235 32.7326 21.4227 32.3755 21.3688 31.9833L21.3542 31.7708V17.1875C21.3542 16.7731 21.5188 16.3757 21.8118 16.0826C22.1048 15.7896 22.5023 15.625 22.9167 15.625ZM15.625 15.625C16.0026 15.625 16.3674 15.7618 16.6519 16.0099C16.9365 16.2581 17.1216 16.6009 17.1729 16.975L17.1875 17.1875V31.7708C17.1874 32.1667 17.037 32.5478 16.7667 32.8371C16.4965 33.1263 16.1265 33.3022 15.7315 33.3292C15.3365 33.3562 14.9461 33.2323 14.639 32.9824C14.3319 32.7326 14.131 32.3755 14.0771 31.9833L14.0625 31.7708V17.1875C14.0625 16.7731 14.2271 16.3757 14.5201 16.0826C14.8132 15.7896 15.2106 15.625 15.625 15.625ZM19.2708 3.125C18.3559 3.12503 17.4743 3.46911 16.8013 4.08892C16.1282 4.70873 15.7128 5.55896 15.6375 6.47083L15.625 6.77083H22.9167C22.9167 5.8039 22.5326 4.87657 21.8488 4.19284C21.1651 3.50911 20.2378 3.125 19.2708 3.125Z" fill="#D40A0A"/>
</svg>
