<svg width="90" height="90" viewBox="0 0 90 90" fill="none" xmlns="http://www.w3.org/2000/svg">
<path d="M67.8098 16.7442C65.5907 16.7442 63.6904 15.9237 62.1089 14.2828C60.53 12.6447 59.7406 10.6744 59.7406 8.37209C59.7406 6.06977 60.53 4.09814 62.1089 2.45721C63.6904 0.819069 65.5907 0 67.8098 0C70.0288 0 71.9291 0.819069 73.5106 2.45721C75.0895 4.09814 75.8789 6.06977 75.8789 8.37209C75.8789 10.6744 75.0895 12.6447 73.5106 14.2828C71.9291 15.9237 70.0288 16.7442 67.8098 16.7442ZM41.5849 90L52.8818 30.9767L45.6195 33.907V48.1395H42.7953L15.5618 81.314C15.4946 81.2442 15.1086 80.9302 14.4039 80.3721C13.6965 79.814 12.6704 79.5349 11.3255 79.5349C10.6531 79.5349 9.76277 79.7442 8.65461 80.1628C7.54375 80.5814 6.61848 81.5581 5.87881 83.093L1.44076 79.1163C1.0373 78.7674 0.717225 78.3488 0.480529 77.8605C0.246523 77.3721 0.0958979 76.8488 0.0286548 76.2907C-0.0385884 75.7326 0.0125164 75.1912 0.181969 74.6665C0.348732 74.1447 0.600222 73.6744 0.936437 73.2558L14.0489 57.3488C14.3851 56.8605 14.7885 56.5116 15.2592 56.3023C15.7299 56.093 16.2343 55.9535 16.7722 55.8837C17.3101 55.814 17.832 55.8837 18.3376 56.093C18.8406 56.3023 19.2938 56.5814 19.6973 56.9302L25.85 62.3721L37.5503 48.1395V28.4651L57.925 19.4651C59.8751 18.5581 61.8587 18.4535 63.876 19.1512C65.8933 19.8488 67.4735 21.1395 68.6167 23.0233L72.6513 29.7209C74.2651 32.6512 76.6025 35.0581 79.6634 36.9419C82.7216 38.8256 86.1671 39.7674 90 39.7674V48.1395C85.5619 48.1395 81.4104 47.1795 77.5452 45.2595C73.6774 43.3423 70.4322 40.814 67.8098 37.6744L65.389 50.2326L73.8616 58.6047V90H65.7925V64.8837L57.3198 56.5116L50.0576 90H41.5849ZM7.29092 85.814C7.29092 84.6279 7.67824 83.6344 8.45288 82.8335C9.22483 82.0298 10.1824 81.6279 11.3255 81.6279C12.4686 81.6279 13.4275 82.0298 14.2022 82.8335C14.9741 83.6344 15.3601 84.6279 15.3601 85.814C15.3601 87 14.9741 87.9935 14.2022 88.7944C13.4275 89.5981 12.4686 90 11.3255 90C10.1824 90 9.22483 89.5981 8.45288 88.7944C7.67824 87.9935 7.29092 87 7.29092 85.814Z" fill="#D4920A"/>
</svg>
